<mxfile host="app.diagrams.net" agent="Mozilla/5.0 (Windows NT 10.0; Win64; x64) AppleWebKit/537.36 (KHTML, like Gecko) Chrome/133.0.0.0 Safari/537.36" version="26.1.0">
  <diagram id="C5RBs43oDa-KdzZeNtuy" name="Page-1">
    <mxGraphModel dx="478" dy="249" grid="1" gridSize="10" guides="1" tooltips="1" connect="1" arrows="1" fold="1" page="1" pageScale="1" pageWidth="827" pageHeight="1169" math="0" shadow="0">
      <root>
        <mxCell id="WIyWlLk6GJQsqaUBKTNV-0" />
        <mxCell id="WIyWlLk6GJQsqaUBKTNV-1" parent="WIyWlLk6GJQsqaUBKTNV-0" />
        <mxCell id="e0bZ93DIDSI7V1r6PzEF-0" value="OpeningTimeManager" style="swimlane;fontStyle=1;align=center;verticalAlign=top;childLayout=stackLayout;horizontal=1;startSize=26;horizontalStack=0;resizeParent=1;resizeParentMax=0;resizeLast=0;collapsible=1;marginBottom=0;whiteSpace=wrap;html=1;" vertex="1" parent="WIyWlLk6GJQsqaUBKTNV-1">
          <mxGeometry x="330" width="220" height="110" as="geometry" />
        </mxCell>
        <mxCell id="e0bZ93DIDSI7V1r6PzEF-1" value="+ field: type" style="text;strokeColor=none;fillColor=none;align=left;verticalAlign=top;spacingLeft=4;spacingRight=4;overflow=hidden;rotatable=0;points=[[0,0.5],[1,0.5]];portConstraint=eastwest;whiteSpace=wrap;html=1;" vertex="1" parent="e0bZ93DIDSI7V1r6PzEF-0">
          <mxGeometry y="26" width="220" height="30" as="geometry" />
        </mxCell>
        <mxCell id="e0bZ93DIDSI7V1r6PzEF-2" value="" style="line;strokeWidth=1;fillColor=none;align=left;verticalAlign=middle;spacingTop=-1;spacingLeft=3;spacingRight=3;rotatable=0;labelPosition=right;points=[];portConstraint=eastwest;strokeColor=inherit;" vertex="1" parent="e0bZ93DIDSI7V1r6PzEF-0">
          <mxGeometry y="56" width="220" height="10" as="geometry" />
        </mxCell>
        <mxCell id="e0bZ93DIDSI7V1r6PzEF-3" value="&lt;div&gt;+ method(type) : type&lt;/div&gt;Initialize(): Cake 등 초기화" style="text;strokeColor=none;fillColor=none;align=left;verticalAlign=top;spacingLeft=4;spacingRight=4;overflow=hidden;rotatable=0;points=[[0,0.5],[1,0.5]];portConstraint=eastwest;whiteSpace=wrap;html=1;" vertex="1" parent="e0bZ93DIDSI7V1r6PzEF-0">
          <mxGeometry y="66" width="220" height="44" as="geometry" />
        </mxCell>
        <mxCell id="e0bZ93DIDSI7V1r6PzEF-4" value="ManufactureAdmin" style="swimlane;fontStyle=1;align=center;verticalAlign=top;childLayout=stackLayout;horizontal=1;startSize=26;horizontalStack=0;resizeParent=1;resizeParentMax=0;resizeLast=0;collapsible=1;marginBottom=0;whiteSpace=wrap;html=1;" vertex="1" parent="WIyWlLk6GJQsqaUBKTNV-1">
          <mxGeometry x="360" y="120" width="160" height="96" as="geometry" />
        </mxCell>
        <mxCell id="e0bZ93DIDSI7V1r6PzEF-5" value="+ field: type" style="text;strokeColor=none;fillColor=none;align=left;verticalAlign=top;spacingLeft=4;spacingRight=4;overflow=hidden;rotatable=0;points=[[0,0.5],[1,0.5]];portConstraint=eastwest;whiteSpace=wrap;html=1;" vertex="1" parent="e0bZ93DIDSI7V1r6PzEF-4">
          <mxGeometry y="26" width="160" height="30" as="geometry" />
        </mxCell>
        <mxCell id="e0bZ93DIDSI7V1r6PzEF-6" value="" style="line;strokeWidth=1;fillColor=none;align=left;verticalAlign=middle;spacingTop=-1;spacingLeft=3;spacingRight=3;rotatable=0;labelPosition=right;points=[];portConstraint=eastwest;strokeColor=inherit;" vertex="1" parent="e0bZ93DIDSI7V1r6PzEF-4">
          <mxGeometry y="56" width="160" height="10" as="geometry" />
        </mxCell>
        <mxCell id="e0bZ93DIDSI7V1r6PzEF-7" value="+ method(type): type" style="text;strokeColor=none;fillColor=none;align=left;verticalAlign=top;spacingLeft=4;spacingRight=4;overflow=hidden;rotatable=0;points=[[0,0.5],[1,0.5]];portConstraint=eastwest;whiteSpace=wrap;html=1;" vertex="1" parent="e0bZ93DIDSI7V1r6PzEF-4">
          <mxGeometry y="66" width="160" height="30" as="geometry" />
        </mxCell>
        <mxCell id="e0bZ93DIDSI7V1r6PzEF-8" value="ManufactureEventManager" style="swimlane;fontStyle=1;align=center;verticalAlign=top;childLayout=stackLayout;horizontal=1;startSize=26;horizontalStack=0;resizeParent=1;resizeParentMax=0;resizeLast=0;collapsible=1;marginBottom=0;whiteSpace=wrap;html=1;" vertex="1" parent="WIyWlLk6GJQsqaUBKTNV-1">
          <mxGeometry x="340" y="260" width="200" height="270" as="geometry" />
        </mxCell>
        <mxCell id="e0bZ93DIDSI7V1r6PzEF-9" value="&lt;div&gt;+ field : type&lt;/div&gt;OnCommandStart: Event&lt;div&gt;OnCommandInput: Event&lt;/div&gt;&lt;div&gt;OnCommandEnd: Event&lt;/div&gt;&lt;div&gt;OnLineChange : Event&lt;/div&gt;&lt;div&gt;OnSwapScreen : Event&lt;/div&gt;&lt;div&gt;OnCommandValid : Event&lt;/div&gt;&lt;div&gt;OnCommandFailed : Event&lt;/div&gt;" style="text;strokeColor=none;fillColor=none;align=left;verticalAlign=top;spacingLeft=4;spacingRight=4;overflow=hidden;rotatable=0;points=[[0,0.5],[1,0.5]];portConstraint=eastwest;whiteSpace=wrap;html=1;" vertex="1" parent="e0bZ93DIDSI7V1r6PzEF-8">
          <mxGeometry y="26" width="200" height="144" as="geometry" />
        </mxCell>
        <mxCell id="e0bZ93DIDSI7V1r6PzEF-10" value="" style="line;strokeWidth=1;fillColor=none;align=left;verticalAlign=middle;spacingTop=-1;spacingLeft=3;spacingRight=3;rotatable=0;labelPosition=right;points=[];portConstraint=eastwest;strokeColor=inherit;" vertex="1" parent="e0bZ93DIDSI7V1r6PzEF-8">
          <mxGeometry y="170" width="200" height="10" as="geometry" />
        </mxCell>
        <mxCell id="e0bZ93DIDSI7V1r6PzEF-11" value="&lt;div&gt;+ method(type): type&lt;/div&gt;TriggerCommandStart : void&lt;div&gt;TriggerCommandInput : void&lt;/div&gt;&lt;div&gt;TriggerCommandEnd : void&lt;/div&gt;&lt;div&gt;TriggerLineChange : void&lt;/div&gt;" style="text;strokeColor=none;fillColor=none;align=left;verticalAlign=top;spacingLeft=4;spacingRight=4;overflow=hidden;rotatable=0;points=[[0,0.5],[1,0.5]];portConstraint=eastwest;whiteSpace=wrap;html=1;" vertex="1" parent="e0bZ93DIDSI7V1r6PzEF-8">
          <mxGeometry y="180" width="200" height="90" as="geometry" />
        </mxCell>
        <mxCell id="e0bZ93DIDSI7V1r6PzEF-13" value="이벤트" style="edgeStyle=orthogonalEdgeStyle;rounded=0;orthogonalLoop=1;jettySize=auto;html=1;exitX=0.25;exitY=0;exitDx=0;exitDy=0;entryX=0.187;entryY=0.998;entryDx=0;entryDy=0;entryPerimeter=0;" edge="1" parent="WIyWlLk6GJQsqaUBKTNV-1" source="e0bZ93DIDSI7V1r6PzEF-8" target="e0bZ93DIDSI7V1r6PzEF-7">
          <mxGeometry relative="1" as="geometry">
            <mxPoint x="390" y="230" as="sourcePoint" />
            <mxPoint x="390" y="210" as="targetPoint" />
            <Array as="points">
              <mxPoint x="390" y="220" />
            </Array>
          </mxGeometry>
        </mxCell>
        <mxCell id="e0bZ93DIDSI7V1r6PzEF-14" value="초기화" style="edgeStyle=orthogonalEdgeStyle;rounded=0;orthogonalLoop=1;jettySize=auto;html=1;entryX=0.707;entryY=0.027;entryDx=0;entryDy=0;entryPerimeter=0;" edge="1" parent="WIyWlLk6GJQsqaUBKTNV-1" source="e0bZ93DIDSI7V1r6PzEF-4" target="e0bZ93DIDSI7V1r6PzEF-8">
          <mxGeometry relative="1" as="geometry">
            <Array as="points">
              <mxPoint x="480" y="240" />
              <mxPoint x="481" y="240" />
            </Array>
          </mxGeometry>
        </mxCell>
        <mxCell id="e0bZ93DIDSI7V1r6PzEF-15" value="ScreenSwapper" style="swimlane;fontStyle=1;align=center;verticalAlign=top;childLayout=stackLayout;horizontal=1;startSize=26;horizontalStack=0;resizeParent=1;resizeParentMax=0;resizeLast=0;collapsible=1;marginBottom=0;whiteSpace=wrap;html=1;" vertex="1" parent="WIyWlLk6GJQsqaUBKTNV-1">
          <mxGeometry x="580" y="120" width="160" height="86" as="geometry">
            <mxRectangle x="580" y="120" width="130" height="30" as="alternateBounds" />
          </mxGeometry>
        </mxCell>
        <mxCell id="e0bZ93DIDSI7V1r6PzEF-16" value="+ field: type" style="text;strokeColor=none;fillColor=none;align=left;verticalAlign=top;spacingLeft=4;spacingRight=4;overflow=hidden;rotatable=0;points=[[0,0.5],[1,0.5]];portConstraint=eastwest;whiteSpace=wrap;html=1;" vertex="1" parent="e0bZ93DIDSI7V1r6PzEF-15">
          <mxGeometry y="26" width="160" height="26" as="geometry" />
        </mxCell>
        <mxCell id="e0bZ93DIDSI7V1r6PzEF-17" value="" style="line;strokeWidth=1;fillColor=none;align=left;verticalAlign=middle;spacingTop=-1;spacingLeft=3;spacingRight=3;rotatable=0;labelPosition=right;points=[];portConstraint=eastwest;strokeColor=inherit;" vertex="1" parent="e0bZ93DIDSI7V1r6PzEF-15">
          <mxGeometry y="52" width="160" height="8" as="geometry" />
        </mxCell>
        <mxCell id="e0bZ93DIDSI7V1r6PzEF-18" value="+ method(type): type" style="text;strokeColor=none;fillColor=none;align=left;verticalAlign=top;spacingLeft=4;spacingRight=4;overflow=hidden;rotatable=0;points=[[0,0.5],[1,0.5]];portConstraint=eastwest;whiteSpace=wrap;html=1;" vertex="1" parent="e0bZ93DIDSI7V1r6PzEF-15">
          <mxGeometry y="60" width="160" height="26" as="geometry" />
        </mxCell>
        <mxCell id="e0bZ93DIDSI7V1r6PzEF-21" value="" style="endArrow=classic;html=1;rounded=0;exitX=1;exitY=0;exitDx=0;exitDy=0;entryX=-0.002;entryY=0.969;entryDx=0;entryDy=0;entryPerimeter=0;" edge="1" parent="WIyWlLk6GJQsqaUBKTNV-1" source="e0bZ93DIDSI7V1r6PzEF-8" target="e0bZ93DIDSI7V1r6PzEF-18">
          <mxGeometry relative="1" as="geometry">
            <mxPoint x="570" y="260" as="sourcePoint" />
            <mxPoint x="670" y="260" as="targetPoint" />
          </mxGeometry>
        </mxCell>
        <mxCell id="e0bZ93DIDSI7V1r6PzEF-22" value="화면 전환 이벤트" style="edgeLabel;resizable=0;html=1;;align=center;verticalAlign=middle;" connectable="0" vertex="1" parent="e0bZ93DIDSI7V1r6PzEF-21">
          <mxGeometry relative="1" as="geometry" />
        </mxCell>
        <mxCell id="e0bZ93DIDSI7V1r6PzEF-23" value="OpeningTimeDataManager" style="swimlane;fontStyle=1;align=center;verticalAlign=top;childLayout=stackLayout;horizontal=1;startSize=26;horizontalStack=0;resizeParent=1;resizeParentMax=0;resizeLast=0;collapsible=1;marginBottom=0;whiteSpace=wrap;html=1;" vertex="1" parent="WIyWlLk6GJQsqaUBKTNV-1">
          <mxGeometry x="90" width="160" height="104" as="geometry" />
        </mxCell>
        <mxCell id="e0bZ93DIDSI7V1r6PzEF-24" value="+ Cakes: Cake&lt;div&gt;+ Ingredients : List&amp;lt;int&amp;gt;&lt;/div&gt;" style="text;strokeColor=none;fillColor=none;align=left;verticalAlign=top;spacingLeft=4;spacingRight=4;overflow=hidden;rotatable=0;points=[[0,0.5],[1,0.5]];portConstraint=eastwest;whiteSpace=wrap;html=1;" vertex="1" parent="e0bZ93DIDSI7V1r6PzEF-23">
          <mxGeometry y="26" width="160" height="44" as="geometry" />
        </mxCell>
        <mxCell id="e0bZ93DIDSI7V1r6PzEF-25" value="" style="line;strokeWidth=1;fillColor=none;align=left;verticalAlign=middle;spacingTop=-1;spacingLeft=3;spacingRight=3;rotatable=0;labelPosition=right;points=[];portConstraint=eastwest;strokeColor=inherit;" vertex="1" parent="e0bZ93DIDSI7V1r6PzEF-23">
          <mxGeometry y="70" width="160" height="8" as="geometry" />
        </mxCell>
        <mxCell id="e0bZ93DIDSI7V1r6PzEF-26" value="+ method(type): type" style="text;strokeColor=none;fillColor=none;align=left;verticalAlign=top;spacingLeft=4;spacingRight=4;overflow=hidden;rotatable=0;points=[[0,0.5],[1,0.5]];portConstraint=eastwest;whiteSpace=wrap;html=1;" vertex="1" parent="e0bZ93DIDSI7V1r6PzEF-23">
          <mxGeometry y="78" width="160" height="26" as="geometry" />
        </mxCell>
        <mxCell id="e0bZ93DIDSI7V1r6PzEF-31" value="입력 이벤트" style="edgeStyle=orthogonalEdgeStyle;rounded=0;orthogonalLoop=1;jettySize=auto;html=1;entryX=-0.001;entryY=0.019;entryDx=0;entryDy=0;entryPerimeter=0;" edge="1" parent="WIyWlLk6GJQsqaUBKTNV-1">
          <mxGeometry relative="1" as="geometry">
            <mxPoint x="250" y="300" as="sourcePoint" />
            <mxPoint x="339.79999999999995" y="300.216" as="targetPoint" />
            <Array as="points" />
          </mxGeometry>
        </mxCell>
        <mxCell id="e0bZ93DIDSI7V1r6PzEF-27" value="ManufactureInpuManager" style="swimlane;fontStyle=1;align=center;verticalAlign=top;childLayout=stackLayout;horizontal=1;startSize=26;horizontalStack=0;resizeParent=1;resizeParentMax=0;resizeLast=0;collapsible=1;marginBottom=0;whiteSpace=wrap;html=1;" vertex="1" parent="WIyWlLk6GJQsqaUBKTNV-1">
          <mxGeometry x="40" y="260" width="210" height="230" as="geometry" />
        </mxCell>
        <mxCell id="e0bZ93DIDSI7V1r6PzEF-28" value="&lt;div&gt;&lt;div&gt;+ field : type&lt;/div&gt;&lt;/div&gt;CommandKeys : List&amp;lt;InputAction&amp;gt;&lt;div&gt;&lt;div&gt;CommandEnterKey : InputAction&lt;/div&gt;&lt;div&gt;SwapScreenKey : InputAction&lt;/div&gt;&lt;div&gt;MoveLineKeyL : InputAction&lt;/div&gt;&lt;div&gt;MoveLineKeyR : InputAction&lt;/div&gt;&lt;/div&gt;" style="text;strokeColor=none;fillColor=none;align=left;verticalAlign=top;spacingLeft=4;spacingRight=4;overflow=hidden;rotatable=0;points=[[0,0.5],[1,0.5]];portConstraint=eastwest;whiteSpace=wrap;html=1;" vertex="1" parent="e0bZ93DIDSI7V1r6PzEF-27">
          <mxGeometry y="26" width="210" height="124" as="geometry" />
        </mxCell>
        <mxCell id="e0bZ93DIDSI7V1r6PzEF-29" value="" style="line;strokeWidth=1;fillColor=none;align=left;verticalAlign=middle;spacingTop=-1;spacingLeft=3;spacingRight=3;rotatable=0;labelPosition=right;points=[];portConstraint=eastwest;strokeColor=inherit;" vertex="1" parent="e0bZ93DIDSI7V1r6PzEF-27">
          <mxGeometry y="150" width="210" height="8" as="geometry" />
        </mxCell>
        <mxCell id="e0bZ93DIDSI7V1r6PzEF-30" value="+ method(type): type&lt;div&gt;SubscribeInput : void&lt;/div&gt;&lt;div&gt;UnSubscribeInput : void&lt;/div&gt;&lt;div&gt;&lt;br&gt;&lt;/div&gt;" style="text;strokeColor=none;fillColor=none;align=left;verticalAlign=top;spacingLeft=4;spacingRight=4;overflow=hidden;rotatable=0;points=[[0,0.5],[1,0.5]];portConstraint=eastwest;whiteSpace=wrap;html=1;" vertex="1" parent="e0bZ93DIDSI7V1r6PzEF-27">
          <mxGeometry y="158" width="210" height="72" as="geometry" />
        </mxCell>
        <mxCell id="e0bZ93DIDSI7V1r6PzEF-32" value="ManufactureCommandData" style="swimlane;fontStyle=1;align=center;verticalAlign=top;childLayout=stackLayout;horizontal=1;startSize=26;horizontalStack=0;resizeParent=1;resizeParentMax=0;resizeLast=0;collapsible=1;marginBottom=0;whiteSpace=wrap;html=1;" vertex="1" parent="WIyWlLk6GJQsqaUBKTNV-1">
          <mxGeometry x="640" y="260" width="220" height="190" as="geometry" />
        </mxCell>
        <mxCell id="e0bZ93DIDSI7V1r6PzEF-33" value="&lt;div&gt;&lt;div&gt;+ field : type&lt;/div&gt;&lt;/div&gt;Recipes : List&amp;lt;List&amp;lt;ArrowRecipe&amp;gt;&amp;gt;&lt;div&gt;&lt;div&gt;InputCommand : List&amp;lt;ArrowRecipe&amp;gt;&lt;/div&gt;&lt;div&gt;CorrectCommands : List&amp;lt;bool&amp;gt;&lt;/div&gt;&lt;/div&gt;" style="text;strokeColor=none;fillColor=none;align=left;verticalAlign=top;spacingLeft=4;spacingRight=4;overflow=hidden;rotatable=0;points=[[0,0.5],[1,0.5]];portConstraint=eastwest;whiteSpace=wrap;html=1;" vertex="1" parent="e0bZ93DIDSI7V1r6PzEF-32">
          <mxGeometry y="26" width="220" height="84" as="geometry" />
        </mxCell>
        <mxCell id="e0bZ93DIDSI7V1r6PzEF-34" value="" style="line;strokeWidth=1;fillColor=none;align=left;verticalAlign=middle;spacingTop=-1;spacingLeft=3;spacingRight=3;rotatable=0;labelPosition=right;points=[];portConstraint=eastwest;strokeColor=inherit;" vertex="1" parent="e0bZ93DIDSI7V1r6PzEF-32">
          <mxGeometry y="110" width="220" height="8" as="geometry" />
        </mxCell>
        <mxCell id="e0bZ93DIDSI7V1r6PzEF-35" value="+ method(type): type&lt;div&gt;ValidCommand : int&lt;/div&gt;&lt;div&gt;&lt;br&gt;&lt;/div&gt;" style="text;strokeColor=none;fillColor=none;align=left;verticalAlign=top;spacingLeft=4;spacingRight=4;overflow=hidden;rotatable=0;points=[[0,0.5],[1,0.5]];portConstraint=eastwest;whiteSpace=wrap;html=1;" vertex="1" parent="e0bZ93DIDSI7V1r6PzEF-32">
          <mxGeometry y="118" width="220" height="72" as="geometry" />
        </mxCell>
        <mxCell id="e0bZ93DIDSI7V1r6PzEF-37" value="입력 이벤트" style="endArrow=classic;html=1;rounded=0;exitX=1.001;exitY=0.181;exitDx=0;exitDy=0;exitPerimeter=0;entryX=0;entryY=0.349;entryDx=0;entryDy=0;entryPerimeter=0;" edge="1" parent="WIyWlLk6GJQsqaUBKTNV-1" source="e0bZ93DIDSI7V1r6PzEF-9" target="e0bZ93DIDSI7V1r6PzEF-33">
          <mxGeometry width="50" height="50" relative="1" as="geometry">
            <mxPoint x="550" y="390" as="sourcePoint" />
            <mxPoint x="600" y="340" as="targetPoint" />
          </mxGeometry>
        </mxCell>
        <mxCell id="e0bZ93DIDSI7V1r6PzEF-38" value="정답 판정" style="endArrow=classic;html=1;rounded=0;entryX=1.007;entryY=0.611;entryDx=0;entryDy=0;entryPerimeter=0;movable=1;resizable=1;rotatable=1;deletable=1;editable=1;locked=0;connectable=1;" edge="1" parent="WIyWlLk6GJQsqaUBKTNV-1" target="e0bZ93DIDSI7V1r6PzEF-9">
          <mxGeometry width="50" height="50" relative="1" as="geometry">
            <mxPoint x="640" y="374" as="sourcePoint" />
            <mxPoint x="640" y="300" as="targetPoint" />
          </mxGeometry>
        </mxCell>
      </root>
    </mxGraphModel>
  </diagram>
</mxfile>
